# xmcd
#
# Track frame offsets:
#	150
#	12126
#	25331
#	37860
#	55146
#	67310
#	79144
#	90890
#	103637
#	117780
#	138577
#	149852
#	161245
#	172854
#	186505
#	201564
#
# Disc length: 2854 seconds
#
# Revision: 0
# Processed by: cddbd v1.5.2PL0 Copyright (c) Steve Scherf et al.
# Submitted via: audiograbber 1.83.01
#
DISCID=e40b2410
DTITLE=Various Artist - Best Country  Platte 1
DYEAR=1986
DGENRE=Country
TTITLE0=The Oak Ridge Boys - Elvira
TTITLE1=Tanya Tucker - Here´s Some Love
TTITLE2=Don Williams - Some Broken Hearts Never Mend
TTITLE3=Billie Jo Spears - Blanket On The Ground
TTITLE4=Waylon Jennings - Working Without A Net
TTITLE5=Kenny Rogers - Me And Bobby McGee
TTITLE6=Johnny Cash - Ring Of Fire
TTITLE7=Lynn Anderson - Rose Garden
TTITLE8=Patty Loveless - Wicked Ways
TTITLE9=Conway Twitty - Red Nackin´ Love Makin´ Night
TTITLE10=Donna Fargo - The Happiest Girl In The Whole Usa
TTITLE11=Billy "Crash" Craddock - Rub It In
TTITLE12=Osborne Brothers - Rocky Top
TTITLE13=Loretta Lynn - Just A Woman
TTITLE14=John Schneider - You´re The Last Thing I Needed Tonight
TTITLE15=Bobby Bare - Detroit City
EXTD=
EXTT0=
EXTT1=
EXTT2=
EXTT3=
EXTT4=
EXTT5=
EXTT6=
EXTT7=
EXTT8=
EXTT9=
EXTT10=
EXTT11=
EXTT12=
EXTT13=
EXTT14=
EXTT15=
PLAYORDER=
